<svg width="336" height="72" viewBox="0 0 336 72" fill="none" xmlns="http://www.w3.org/2000/svg">
<path d="M19.5405 40.8236C21.8266 45.6037 25.6801 49.4572 30.4602 51.7433C25.6801 54.0295 21.8266 57.883 19.5405 62.6631C17.2544 57.883 13.4008 54.0295 8.62074 51.7433C13.4008 49.4572 17.2544 45.6037 19.5405 40.8236Z" fill="#1B1E2D"/>
<path d="M47.7011 12.6631C49.9873 17.4432 53.8408 21.2967 58.6209 23.5828C53.8408 25.869 49.9873 29.7225 47.7011 34.5026C45.415 29.7225 41.5615 25.869 36.7814 23.5828C41.5615 21.2967 45.415 17.4432 47.7011 12.6631Z" fill="#1B1E2D"/>
<path d="M47.7011 40.8236C49.9873 45.6037 53.8408 49.4572 58.6209 51.7433C53.8408 54.0295 49.9873 57.883 47.7011 62.6631C45.415 57.883 41.5615 54.0295 36.7814 51.7433C41.5615 49.4572 45.415 45.6037 47.7011 40.8236Z" fill="#1B1E2D"/>
<path d="M111.209 12.4895H79.1464V62.6631H87.5311V40.7289H111.008V33.2163H87.5311V19.9351H111.209V12.4895Z" fill="#1B1E2D"/>
<path d="M139.48 24.0268H133.443C129.486 24.0268 126.601 26.4415 125.394 30.1978L124.79 24.0268H117.747V62.6631H125.863V42.4058C125.863 35.564 128.546 31.1369 133.913 31.1369H140.486L139.48 24.0268Z" fill="#1B1E2D"/>
<path d="M158.957 63.468C169.891 63.468 177.001 55.62 177.001 43.3449C177.001 31.0698 169.891 23.2218 158.957 23.2218C148.158 23.2218 140.98 31.1369 140.98 43.3449C140.98 55.62 148.091 63.468 158.957 63.468ZM158.957 56.0895C153.188 56.0895 149.164 51.3271 149.164 43.3449C149.164 35.4298 153.188 30.6003 158.957 30.6003C164.86 30.6003 168.817 35.4298 168.817 43.3449C168.817 51.26 164.86 56.0895 158.957 56.0895Z" fill="#1B1E2D"/>
<path d="M202.173 23.2218C197.008 23.2218 192.984 25.972 190.837 30.7345L190.167 24.0268H183.124V62.6631H191.24V40.7289C191.24 35.0274 194.46 30.6003 199.826 30.6003C204.722 30.6003 207.942 33.82 207.942 39.1862V62.6631H216.058V37.5092C216.058 28.7222 210.424 23.2218 202.173 23.2218Z" fill="#1B1E2D"/>
<path d="M237.515 55.5529C235.704 55.5529 234.497 54.2785 234.497 52.4674V31.1369H242.948V24.0268H234.497V11.6846L226.313 15.2397V24.0268H219.874V31.1369H226.313V53.5406C226.313 59.0409 229.935 62.6631 235.436 62.6631H242.948L243.887 55.5529H237.515Z" fill="#1B1E2D"/>
<path d="M252.525 18.7277C255.61 18.7277 257.824 16.6483 257.824 13.6298C257.824 10.6114 255.61 8.532 252.525 8.532C249.439 8.532 247.225 10.6114 247.225 13.6298C247.225 16.6483 249.439 18.7277 252.525 18.7277ZM256.616 24.0268H248.5V62.6631H256.616V24.0268Z" fill="#1B1E2D"/>
<path d="M290.732 49.3148C289.726 53.5406 286.238 56.0895 281.542 56.0895C275.17 56.0895 271.212 51.26 270.81 44.6865H297.574C299.586 32.5455 292.476 23.2218 280.804 23.2218C269.938 23.2218 262.694 32.0089 262.694 43.3449C262.694 54.6809 270.206 63.468 281.542 63.468C289.994 63.468 297.037 58.7726 298.513 50.7234L290.732 49.3148ZM281.207 30.5332C285.835 30.5332 289.256 33.6188 289.591 38.0458H271.414C272.822 33.2163 276.646 30.5332 281.207 30.5332Z" fill="#1B1E2D"/>
<path d="M326.373 24.0268H320.336C316.379 24.0268 313.494 26.4415 312.287 30.1978L311.683 24.0268H304.64V62.6631H312.756V42.4058C312.756 35.564 315.44 31.1369 320.806 31.1369H327.379L326.373 24.0268Z" fill="#1B1E2D"/>
</svg>
