<svg width="336" height="72" viewBox="0 0 336 72" fill="none" xmlns="http://www.w3.org/2000/svg">
<path fill-rule="evenodd" clip-rule="evenodd" d="M257.824 13.6298C257.824 16.6483 255.61 18.7277 252.524 18.7277C249.439 18.7277 247.225 16.6483 247.225 13.6298C247.225 10.6114 249.439 8.532 252.524 8.532C255.61 8.532 257.824 10.6114 257.824 13.6298ZM248.5 24.0268H256.616V62.6631H248.5V24.0268ZM237.515 55.5529C235.704 55.5529 234.496 54.2785 234.496 52.4674V31.1369H242.948V24.0268H234.496V11.6846L226.313 15.2397V24.0268H219.874V31.1369H226.313V53.5406C226.313 59.0409 229.935 62.6631 235.436 62.6631H242.948L243.887 55.5529H237.515ZM79.1463 12.4895H111.209V19.9351H87.531V33.2163H111.008V40.7289H87.531V62.6631H79.1463V12.4895ZM133.443 24.0268H139.48L140.486 31.1369H133.913C128.546 31.1369 125.863 35.564 125.863 42.4058V62.6631H117.747V24.0268H124.79L125.394 30.1978C126.601 26.4415 129.485 24.0268 133.443 24.0268ZM158.957 63.468C169.89 63.468 177.001 55.62 177.001 43.3449C177.001 31.0698 169.89 23.2218 158.957 23.2218C148.158 23.2218 140.98 31.1369 140.98 43.3449C140.98 55.62 148.09 63.468 158.957 63.468ZM158.957 56.0895C153.188 56.0895 149.164 51.3271 149.164 43.3449C149.164 35.4298 153.188 30.6003 158.957 30.6003C164.86 30.6003 168.817 35.4298 168.817 43.3449C168.817 51.26 164.86 56.0895 158.957 56.0895ZM190.837 30.7345C192.984 25.972 197.008 23.2218 202.173 23.2218C210.424 23.2218 216.058 28.7222 216.058 37.5092V62.6631H207.942V39.1862C207.942 33.82 204.722 30.6003 199.826 30.6003C194.459 30.6003 191.24 35.0274 191.24 40.7289V62.6631H183.123V24.0268H190.167L190.837 30.7345ZM290.732 49.3148C289.725 53.5406 286.237 56.0895 281.542 56.0895C275.17 56.0895 271.212 51.26 270.81 44.6865H297.573C299.586 32.5455 292.476 23.2218 280.804 23.2218C269.938 23.2218 262.693 32.0089 262.693 43.3449C262.693 54.6809 270.206 63.468 281.542 63.468C289.994 63.468 297.037 58.7726 298.513 50.7234L290.732 49.3148ZM281.207 30.5332C285.835 30.5332 289.256 33.6188 289.591 38.0458H271.413C272.822 33.2163 276.645 30.5332 281.207 30.5332ZM320.336 24.0268H326.373L327.379 31.1369H320.806C315.439 31.1369 312.756 35.564 312.756 42.4058V62.6631H304.64V24.0268H311.683L312.287 30.1978C313.494 26.4415 316.379 24.0268 320.336 24.0268ZM58.6207 23.5828C53.8406 21.2967 49.9871 17.4432 47.701 12.6631C45.4148 17.4432 41.5613 21.2967 36.7812 23.5828C41.5613 25.869 45.4148 29.7225 47.701 34.5026C49.9871 29.7225 53.8406 25.869 58.6207 23.5828ZM30.4603 51.7433C25.6802 49.4572 21.8267 45.6037 19.5406 40.8236C17.2544 45.6037 13.4009 49.4572 8.62083 51.7433C13.4009 54.0295 17.2544 57.883 19.5406 62.6631C21.8267 57.883 25.6802 54.0295 30.4603 51.7433ZM47.701 40.8236C49.9871 45.6037 53.8406 49.4572 58.6207 51.7433C53.8406 54.0295 49.9871 57.883 47.701 62.6631C45.4148 57.883 41.5613 54.0295 36.7812 51.7433C41.5613 49.4572 45.4148 45.6037 47.701 40.8236Z" fill="#F8F8F8"/>
</svg>
